<svg width="32" height="32" viewBox="0 0 32 32" fill="none" xmlns="http://www.w3.org/2000/svg">
<path d="M8 4.00001L0 13.6052L8 13.6052L12 8.80262L8 4.00001Z" fill="#FF85A3"/>
<path d="M24 4.00001L8 4.00001L12 8.80262L20.25 8.80262L24 4.00001Z" fill="#FF85A3"/>
<path d="M0 13.6052L8 23.2104L12 28L16 23.2104L12 18.4078L8 13.6052L0 13.6052Z" fill="#D0DBFB"/>
<path d="M16 23.2104L12 28L20.25 28L16 23.2104Z" fill="#F5F7FF"/>
<path d="M32 13.6052L24 4.00001L20.25 8.80262L24 13.6052L32 13.6052Z" fill="#FF1F57"/>
<path d="M16 23.2104L12 28L20.25 28L16 23.2104Z" fill="#BBCAF9"/>
<path d="M20 18.4078L24 13.6052L8 13.6052L12 18.4078L16 23.2104L20 18.4078Z" fill="#BBCAF9"/>
<path fill-rule="evenodd" clip-rule="evenodd" d="M12 8.80262L8 13.6052L24 13.6052L32 13.6052L24 4.00001L20.25 8.80262L12 8.80262Z" fill="#D6224F"/>
<path fill-rule="evenodd" clip-rule="evenodd" d="M24 13.6052L20 18.4078L16 23.2104L20.25 28L24 23.2104L32 13.6052L24 13.6052Z" fill="#8AA5F5"/>
<path d="M16 23.2104L12 28L20.25 28L16 23.2104Z" fill="#8AA5F5"/>
<path d="M24 23.2104L32 13.6052L24 13.6052L20 18.4078L16 23.2104L20.25 28L24 23.2104Z" fill="#8AA5F5"/>
<path fill-rule="evenodd" clip-rule="evenodd" d="M16 23.2104L20 18.4078L24 13.6052L16 13.6052L8 13.6052L12 18.4078L16 23.2104Z" fill="#F5F7FF"/>
<path d="M12 8.80237L8 13.605L16 13.605L24 13.605L20.25 8.80237L12 8.80237Z" fill="#FF547F"/>
<path d="M20 18.4076L24 13.605L16 13.605L8 13.605L12 18.4076L16 23.2102L20 18.4076Z" fill="#BBCAF9"/>
<path d="M23.9232 23.1464L23.9231 23.1464L23.9213 23.1488L20.2013 27.9L12.0468 27.9L8.07684 23.1464L8.07675 23.1463L0.130142 13.6052L8.04685 4.1L23.9531 4.1L31.8699 13.6052L23.9232 23.1464Z" stroke="black" stroke-opacity="0.1" stroke-width="0.2" stroke-linejoin="round"/>
</svg>
